<svg width="230" height="125" viewBox="0 0 230 125" fill="none" xmlns="http://www.w3.org/2000/svg">
<line y1="28.8761" x2="230" y2="28.8761" stroke="#25D366" stroke-width="1.26096"/>
<line y1="92.9331" x2="230" y2="92.9331" stroke="#25D366" stroke-width="1.26096"/>
<rect x="77.6754" y="46.1513" width="122.061" height="30.7675" rx="1.26096" fill="#25D366"/>
<path d="M42.8476 61.9463H47.261V69.2599C46.2522 69.9828 45.0921 70.5377 43.7807 70.9243C42.4693 71.311 41.1579 71.5044 39.8465 71.5044C37.9971 71.5044 36.3326 71.1177 34.8531 70.3443C33.3735 69.5541 32.2135 68.4613 31.3728 67.0658C30.5322 65.6703 30.1119 64.0899 30.1119 62.3246C30.1119 60.5592 30.5322 58.9788 31.3728 57.5833C32.2135 56.1879 33.382 55.1034 34.8783 54.33C36.3746 53.5398 38.0643 53.1447 39.9474 53.1447C41.595 53.1447 43.0746 53.4222 44.386 53.977C45.6974 54.5318 46.7902 55.3304 47.6645 56.3728L44.4869 59.2478C43.2931 57.9364 41.864 57.2807 40.1996 57.2807C38.6864 57.2807 37.4675 57.7431 36.5428 58.6678C35.6181 59.5757 35.1557 60.7946 35.1557 62.3246C35.1557 63.2997 35.3659 64.174 35.7862 64.9474C36.2065 65.704 36.795 66.3008 37.5515 66.7379C38.3081 67.1583 39.174 67.3684 40.1491 67.3684C41.1075 67.3684 42.007 67.1751 42.8476 66.7884V61.9463ZM59.3292 71.5044C57.463 71.5044 55.7817 71.1093 54.2853 70.3191C52.8058 69.5289 51.6373 68.436 50.7799 67.0406C49.9392 65.6451 49.5189 64.0731 49.5189 62.3246C49.5189 60.576 49.9392 59.004 50.7799 57.6086C51.6373 56.2131 52.8058 55.1203 54.2853 54.33C55.7817 53.5398 57.463 53.1447 59.3292 53.1447C61.1954 53.1447 62.8683 53.5398 64.3478 54.33C65.8442 55.1203 67.0127 56.2131 67.8533 57.6086C68.7108 59.004 69.1395 60.576 69.1395 62.3246C69.1395 64.0731 68.7108 65.6451 67.8533 67.0406C67.0127 68.436 65.8442 69.5289 64.3478 70.3191C62.8683 71.1093 61.1954 71.5044 59.3292 71.5044ZM59.3292 67.3684C60.2203 67.3684 61.0273 67.1583 61.7502 66.7379C62.4732 66.3176 63.0448 65.7292 63.4652 64.9726C63.8855 64.1992 64.0956 63.3165 64.0956 62.3246C64.0956 61.3326 63.8855 60.4583 63.4652 59.7018C63.0448 58.9284 62.4732 58.3315 61.7502 57.9112C61.0273 57.4909 60.2203 57.2807 59.3292 57.2807C58.4381 57.2807 57.6311 57.4909 56.9081 57.9112C56.1852 58.3315 55.6136 58.9284 55.1932 59.7018C54.7729 60.4583 54.5627 61.3326 54.5627 62.3246C54.5627 63.3165 54.7729 64.1992 55.1932 64.9726C55.6136 65.7292 56.1852 66.3176 56.9081 66.7379C57.6311 67.1583 58.4381 67.3684 59.3292 67.3684Z" fill="white"/>
<circle cx="16.0143" cy="61.409" r="3.15241" fill="white"/>
<circle cx="213.734" cy="61.409" r="3.15241" fill="white"/>
<path d="M97.8004 62.0472C99.0614 62.2825 100.02 62.7785 100.675 63.5351C101.348 64.2917 101.684 65.2752 101.684 66.4858C101.684 67.9821 101.138 69.1338 100.045 69.9408C98.9521 70.7478 97.3297 71.1513 95.1776 71.1513H87.3092V53.4978H94.6732C96.5899 53.4978 98.0778 53.8929 99.1371 54.6831C100.213 55.4565 100.751 56.5662 100.751 58.0121C100.751 59.0208 100.482 59.8699 99.9441 60.5592C99.4229 61.2485 98.7083 61.7445 97.8004 62.0472ZM88.5954 54.6075V61.6436H94.6228C96.1696 61.6436 97.3549 61.3494 98.1787 60.761C99.0194 60.1557 99.4397 59.273 99.4397 58.1129C99.4397 56.9697 99.0194 56.1038 98.1787 55.5154C97.3549 54.9101 96.1696 54.6075 94.6228 54.6075H88.5954ZM95.1776 70.0417C96.8925 70.0417 98.1871 69.7474 99.0614 69.159C99.9525 68.5537 100.398 67.629 100.398 66.3849C100.398 65.1407 99.9525 64.2244 99.0614 63.636C98.1871 63.0475 96.8925 62.7533 95.1776 62.7533H88.5954V70.0417H95.1776ZM117.193 66.1831H106.954L104.709 71.1513H103.322L111.443 53.4978H112.729L120.85 71.1513H119.463L117.193 66.1831ZM116.714 65.0987L112.073 54.9101L107.458 65.0987H116.714ZM136.311 71.1513L132.099 65.25C131.477 65.3341 130.906 65.3761 130.385 65.3761H125.341V71.1513H124.055V53.4978H130.385C132.604 53.4978 134.344 54.0274 135.605 55.0866C136.866 56.129 137.496 57.5833 137.496 59.4496C137.496 60.845 137.135 62.0219 136.412 62.9803C135.706 63.9218 134.689 64.5859 133.36 64.9726L137.774 71.1513H136.311ZM130.385 64.2412C132.268 64.2412 133.705 63.8293 134.697 63.0055C135.689 62.1648 136.185 60.9795 136.185 59.4496C136.185 57.9196 135.689 56.7427 134.697 55.9189C133.705 55.0782 132.268 54.6579 130.385 54.6579H125.341V64.2412H130.385ZM152.697 62.0472C153.958 62.2825 154.916 62.7785 155.572 63.5351C156.244 64.2917 156.581 65.2752 156.581 66.4858C156.581 67.9821 156.034 69.1338 154.941 69.9408C153.848 70.7478 152.226 71.1513 150.074 71.1513H142.206V53.4978H149.57C151.486 53.4978 152.974 53.8929 154.033 54.6831C155.109 55.4565 155.647 56.5662 155.647 58.0121C155.647 59.0208 155.378 59.8699 154.84 60.5592C154.319 61.2485 153.605 61.7445 152.697 62.0472ZM143.492 54.6075V61.6436H149.519C151.066 61.6436 152.251 61.3494 153.075 60.761C153.916 60.1557 154.336 59.273 154.336 58.1129C154.336 56.9697 153.916 56.1038 153.075 55.5154C152.251 54.9101 151.066 54.6075 149.519 54.6075H143.492ZM150.074 70.0417C151.789 70.0417 153.083 69.7474 153.958 69.159C154.849 68.5537 155.294 67.629 155.294 66.3849C155.294 65.1407 154.849 64.2244 153.958 63.636C153.083 63.0475 151.789 62.7533 150.074 62.7533H143.492V70.0417H150.074ZM173.35 69.9912V71.1513H161.169V53.4978H172.972V54.6579H162.455V61.6184H171.862V62.7533H162.455V69.9912H173.35ZM190.296 71.1513L186.085 65.25C185.462 65.3341 184.891 65.3761 184.37 65.3761H179.326V71.1513H178.04V53.4978H184.37C186.589 53.4978 188.329 54.0274 189.59 55.0866C190.851 56.129 191.481 57.5833 191.481 59.4496C191.481 60.845 191.12 62.0219 190.397 62.9803C189.691 63.9218 188.674 64.5859 187.345 64.9726L191.759 71.1513H190.296ZM184.37 64.2412C186.253 64.2412 187.69 63.8293 188.682 63.0055C189.674 62.1648 190.17 60.9795 190.17 59.4496C190.17 57.9196 189.674 56.7427 188.682 55.9189C187.69 55.0782 186.253 54.6579 184.37 54.6579H179.326V64.2412H184.37Z" fill="white"/>
<path d="M43.1393 10H43.8427V6.88556H45.6369C45.7385 6.88556 45.8363 6.8818 45.9303 6.87428L47.6192 10H48.4316L46.6525 6.73887C47.6116 6.42291 48.1081 5.63301 48.1081 4.60239C48.1081 3.25581 47.2618 2.29665 45.6256 2.29665H43.1393V10ZM43.8427 6.24236V2.92857H45.6068C46.8255 2.92857 47.416 3.59433 47.416 4.60239C47.416 5.61045 46.8255 6.24236 45.6181 6.24236H43.8427ZM57.0372 6.14833C57.0372 3.73727 55.653 2.19133 53.7046 2.19133C51.7599 2.19133 50.3757 3.74103 50.3757 6.14833C50.3757 8.55562 51.7562 10.1053 53.7046 10.1053C55.653 10.1053 57.0372 8.55938 57.0372 6.14833ZM56.3526 6.14833C56.3564 8.22086 55.2242 9.44331 53.7046 9.44331C52.1812 9.44331 51.0566 8.21333 51.0566 6.14833C51.0566 4.07203 52.1925 2.85334 53.7046 2.85334C55.2242 2.85334 56.3526 4.07579 56.3526 6.14833ZM65.6719 4.70395C65.4199 3.2859 64.2614 2.19133 62.6214 2.19133C60.6767 2.19133 59.2925 3.73727 59.2925 6.14833C59.2925 8.55938 60.6767 10.1053 62.6214 10.1053C64.2614 10.1053 65.4199 9.00699 65.6719 7.5927H64.9647C64.7503 8.64966 63.8288 9.44331 62.6214 9.44331C61.162 9.44331 59.9734 8.28856 59.9734 6.14833C59.9734 4.01561 61.162 2.85334 62.6214 2.85334C63.8288 2.85334 64.7503 3.65076 64.9647 4.70395H65.6719ZM68.2244 10H68.9278V7.49867L69.9547 6.34768L72.8096 10H73.6672L70.391 5.8587L73.6822 2.29665H72.7569L68.9955 6.44548H68.9278V2.29665H68.2244V10ZM75.9103 10H80.4541V9.36808H76.6137V6.46052H80.1419V5.82861H76.6137V2.92857H80.3789V2.29665H75.9103V10ZM82.6333 2.92857H85.0744V10H85.7778V2.92857H88.219V2.29665H82.6333V2.92857ZM94.8855 4.22249H95.5663C95.5137 3.05269 94.5019 2.18757 93.0688 2.18757C91.647 2.18757 90.5524 3.04141 90.5524 4.28267C90.5524 5.27192 91.252 5.89255 92.4594 6.24988L93.381 6.5207C94.3364 6.79905 94.9908 7.15638 94.9908 7.94251C94.9908 8.86782 94.152 9.48845 93.0011 9.48845C91.9629 9.48845 91.1504 8.98818 91.0752 8.07416H90.353C90.4358 9.29286 91.4288 10.1316 93.0011 10.1316C94.6711 10.1316 95.6717 9.18754 95.6717 7.9538C95.6717 6.67492 94.5583 6.16337 93.5803 5.88879L92.7679 5.65558C92.0193 5.44494 91.2332 5.06504 91.2332 4.25258C91.2332 3.42507 91.9742 2.81949 93.05 2.81949C94.0693 2.81949 94.799 3.36489 94.8855 4.22249ZM98.2646 10H102.808V9.36808H98.968V6.46052H102.496V5.82861H98.968V2.92857H102.733V2.29665H98.2646V10ZM105.465 10L106.289 7.67922H109.524L110.348 10H111.085L108.283 2.29665H107.53L104.728 10H105.465ZM106.515 7.0473L107.88 3.21067H107.933L109.298 7.0473H106.515ZM111.939 2.92857H114.38V10H115.084V2.92857H117.525V2.29665H111.939V2.92857ZM123.888 10H126.63C128.285 10 129.049 9.14616 129.049 7.98013C129.049 6.81033 128.274 6.10695 127.525 6.05429V5.99411C128.214 5.8098 128.748 5.27568 128.748 4.31276C128.748 3.15425 127.992 2.29665 126.487 2.29665H123.888V10ZM124.591 9.36808V6.40034H126.66C127.695 6.40034 128.375 7.09996 128.375 7.98013C128.375 8.77754 127.819 9.36808 126.63 9.36808H124.591ZM124.591 5.77595V2.92857H126.487C127.54 2.92857 128.074 3.49654 128.074 4.31276C128.074 5.15908 127.461 5.77595 126.551 5.77595H124.591ZM137.962 6.14833C137.962 3.73727 136.577 2.19133 134.629 2.19133C132.684 2.19133 131.3 3.74103 131.3 6.14833C131.3 8.55562 132.681 10.1053 134.629 10.1053C136.577 10.1053 137.962 8.55938 137.962 6.14833ZM137.277 6.14833C137.281 8.22086 136.149 9.44331 134.629 9.44331C133.106 9.44331 131.981 8.21333 131.981 6.14833C131.981 4.07203 133.117 2.85334 134.629 2.85334C136.149 2.85334 137.277 4.07579 137.277 6.14833ZM146.879 6.14833C146.879 3.73727 145.494 2.19133 143.546 2.19133C141.601 2.19133 140.217 3.74103 140.217 6.14833C140.217 8.55562 141.597 10.1053 143.546 10.1053C145.494 10.1053 146.879 8.55938 146.879 6.14833ZM146.194 6.14833C146.198 8.22086 145.066 9.44331 143.546 9.44331C142.023 9.44331 140.898 8.21333 140.898 6.14833C140.898 4.07203 142.034 2.85334 143.546 2.85334C145.066 2.85334 146.194 4.07579 146.194 6.14833ZM148.693 2.92857H151.134V10H151.837V2.92857H154.279V2.29665H148.693V2.92857ZM162.475 4.70395C162.223 3.2859 161.065 2.19133 159.425 2.19133C157.48 2.19133 156.096 3.73727 156.096 6.14833C156.096 8.55938 157.48 10.1053 159.425 10.1053C161.065 10.1053 162.223 9.00699 162.475 7.5927H161.768C161.553 8.64966 160.632 9.44331 159.425 9.44331C157.965 9.44331 156.777 8.28856 156.777 6.14833C156.777 4.01561 157.965 2.85334 159.425 2.85334C160.632 2.85334 161.553 3.65076 161.768 4.70395H162.475ZM165.039 10L165.863 7.67922H169.097L169.921 10H170.658L167.856 2.29665H167.104L164.302 10H165.039ZM166.088 7.0473L167.454 3.21067H167.506L168.872 7.0473H166.088ZM172.879 2.29665V10H173.541V3.7824H173.601L176.2 10H176.84L179.439 3.7824H179.499V10H180.161V2.29665H179.349L176.554 9.00699H176.486L173.691 2.29665H172.879ZM183.109 10H183.813V7.05482H185.607C187.236 7.05482 188.078 6.02044 188.078 4.67386C188.078 3.32727 187.236 2.29665 185.596 2.29665H183.109V10ZM183.813 6.42291V2.92857H185.577C186.796 2.92857 187.386 3.66204 187.386 4.67386C187.386 5.68191 186.796 6.42291 185.588 6.42291H183.813Z" fill="white"/>
<path d="M42.8814 122.208H44.7428V118.572H48.5214V122.208H50.3784V113.405H48.5214V117.037H44.7428V113.405H42.8814V122.208ZM54.4595 122.208L55.1129 120.201H58.2896L58.9431 122.208H60.9377L57.9028 113.405H55.5041L52.4648 122.208H54.4595ZM55.5857 118.748L56.669 115.416H56.7378L57.8211 118.748H55.5857ZM64.8876 113.405H63.0263V122.208H64.8876V113.405ZM67.448 122.208H69.3093V119.087H70.6678L72.3357 122.208H74.3905L72.5205 118.787C73.5221 118.357 74.0767 117.484 74.0767 116.28C74.0767 114.531 72.9203 113.405 70.9214 113.405H67.448V122.208ZM69.3093 117.591V114.926H70.5646C71.6393 114.926 72.1594 115.403 72.1594 116.28C72.1594 117.153 71.6393 117.591 70.5732 117.591H69.3093ZM84.1888 116.487C83.9438 114.453 82.4049 113.284 80.3673 113.284C78.0416 113.284 76.2663 114.926 76.2663 117.806C76.2663 120.678 78.0116 122.329 80.3673 122.329C82.6241 122.329 83.9868 120.828 84.1888 119.208L82.306 119.199C82.1297 120.141 81.3904 120.682 80.3974 120.682C79.0604 120.682 78.1534 119.689 78.1534 117.806C78.1534 115.975 79.0476 114.931 80.4103 114.931C81.4291 114.931 82.1641 115.519 82.306 116.487H84.1888ZM91.9905 113.405V118.963C91.9905 119.969 91.2855 120.695 90.2022 120.695C89.1232 120.695 88.4139 119.969 88.4139 118.963V113.405H86.5526V119.122C86.5526 121.048 88.0055 122.333 90.2022 122.333C92.3903 122.333 93.8518 121.048 93.8518 119.122V113.405H91.9905ZM96.0769 114.939H98.7722V122.208H100.612V114.939H103.307V113.405H96.0769V114.939ZM110.303 115.936H112.087C112.061 114.367 110.772 113.284 108.811 113.284C106.881 113.284 105.467 114.35 105.475 115.949C105.471 117.248 106.387 117.991 107.874 118.348L108.833 118.589C109.791 118.821 110.324 119.096 110.329 119.689C110.324 120.334 109.714 120.773 108.768 120.773C107.801 120.773 107.105 120.325 107.045 119.444H105.243C105.291 121.349 106.653 122.333 108.79 122.333C110.939 122.333 112.203 121.306 112.207 119.694C112.203 118.228 111.098 117.45 109.568 117.106L108.777 116.917C108.012 116.74 107.371 116.457 107.384 115.825C107.384 115.257 107.887 114.84 108.798 114.84C109.688 114.84 110.234 115.244 110.303 115.936ZM120.984 122.337C121.754 122.337 122.588 122.122 123.237 121.615L123.77 122.208H125.678L124.354 120.691C124.844 120.042 125.154 119.109 125.154 117.914H123.636C123.636 118.49 123.495 119.001 123.262 119.436L121.81 117.768L122.325 117.398C123.065 116.865 123.495 116.194 123.495 115.365C123.495 114.238 122.622 113.288 121.208 113.288C119.763 113.288 118.805 114.273 118.805 115.55C118.805 116.332 119.183 116.985 119.643 117.57C118.684 118.228 118.04 118.851 118.04 119.87C118.04 121.258 119.153 122.337 120.984 122.337ZM122.248 120.515C121.878 120.742 121.474 120.867 121.074 120.867C120.309 120.867 119.815 120.394 119.815 119.767C119.815 119.431 120.043 119.044 120.528 118.692L120.58 118.658L122.248 120.515ZM120.928 116.723C120.602 116.31 120.374 115.945 120.374 115.58C120.374 115.137 120.709 114.767 121.221 114.763C121.736 114.759 122.029 115.12 122.029 115.468C122.029 115.838 121.827 116.143 121.388 116.422L120.928 116.723ZM136.111 115.936H137.895C137.869 114.367 136.58 113.284 134.62 113.284C132.69 113.284 131.275 114.35 131.284 115.949C131.28 117.248 132.195 117.991 133.683 118.348L134.641 118.589C135.6 118.821 136.133 119.096 136.137 119.689C136.133 120.334 135.522 120.773 134.577 120.773C133.609 120.773 132.913 120.325 132.853 119.444H131.052C131.099 121.349 132.462 122.333 134.598 122.333C136.748 122.333 138.011 121.306 138.016 119.694C138.011 118.228 136.907 117.45 135.376 117.106L134.585 116.917C133.82 116.74 133.18 116.457 133.192 115.825C133.192 115.257 133.695 114.84 134.607 114.84C135.497 114.84 136.043 115.244 136.111 115.936ZM140.297 122.208H142.158V118.572H145.937V122.208H147.794V113.405H145.937V117.037H142.158V113.405H140.297V122.208ZM151.875 122.208L152.528 120.201H155.705L156.358 122.208H158.353L155.318 113.405H152.919L149.88 122.208H151.875ZM153.001 118.748L154.084 115.416H154.153L155.236 118.748H153.001ZM160.944 113.405H158.877L161.916 122.208H164.315L167.35 113.405H165.286L163.154 120.093H163.072L160.944 113.405ZM169.438 122.208H175.388V120.674H171.299V118.572H175.065V117.037H171.299V114.939H175.37V113.405H169.438V122.208ZM182.655 115.936H184.439C184.413 114.367 183.124 113.284 181.163 113.284C179.233 113.284 177.819 114.35 177.828 115.949C177.823 117.248 178.739 117.991 180.226 118.348L181.185 118.589C182.144 118.821 182.677 119.096 182.681 119.689C182.677 120.334 182.066 120.773 181.12 120.773C180.153 120.773 179.457 120.325 179.397 119.444H177.595C177.643 121.349 179.005 122.333 181.142 122.333C183.291 122.333 184.555 121.306 184.559 119.694C184.555 118.228 183.45 117.45 181.92 117.106L181.129 116.917C180.364 116.74 179.723 116.457 179.736 115.825C179.736 115.257 180.239 114.84 181.151 114.84C182.04 114.84 182.586 115.244 182.655 115.936Z" fill="white"/>
</svg>
