<?xml version="1.0" encoding="UTF-8" standalone="no"?><!-- Generator: Gravit.io --><svg xmlns="http://www.w3.org/2000/svg" xmlns:xlink="http://www.w3.org/1999/xlink" style="isolation:isolate" viewBox="0 0 411.669 411.669" width="411.669pt" height="411.669pt"><defs><clipPath id="_clipPath_cxLqLdOmPZ22D9O5WcTJYpHi9F9kJao6"><rect width="411.669" height="411.669"/></clipPath></defs><g clip-path="url(#_clipPath_cxLqLdOmPZ22D9O5WcTJYpHi9F9kJao6)"><rect width="411.669" height="411.669" style="fill:rgb(35,204,122)" fill-opacity="0"/><g><g><g><path d=" M 102.917 0 C 94.797 0 88.215 6.583 88.215 14.703 L 88.215 44.107 L 117.619 44.107 L 117.619 14.703 C 117.619 6.583 111.037 0 102.917 0 Z " fill="rgb(3,81,73)"/></g></g><g><g><path d=" M 308.751 0 C 300.631 0 294.049 6.583 294.049 14.703 L 294.049 44.107 L 323.453 44.107 L 323.453 14.703 C 323.454 6.583 316.872 0 308.751 0 Z " fill="rgb(3,81,73)"/></g></g><g><g><path d=" M 367.562 44.107 L 323.454 44.107 L 323.454 102.917 C 323.454 111.038 316.872 117.62 308.751 117.62 C 300.631 117.62 294.049 111.038 294.049 102.917 L 294.049 44.107 L 117.619 44.107 L 117.619 102.917 C 117.619 111.038 111.037 117.62 102.917 117.62 C 94.796 117.62 88.214 111.038 88.214 102.917 L 88.214 44.107 L 44.107 44.107 C 19.748 44.107 0 63.855 0 88.215 L 0 367.562 C 0 391.921 19.748 411.669 44.107 411.669 L 367.562 411.669 C 391.921 411.669 411.669 391.921 411.669 367.562 L 411.669 88.215 C 411.669 63.855 391.921 44.107 367.562 44.107 Z  M 382.263 367.562 C 382.263 375.682 375.681 382.264 367.561 382.264 L 44.107 382.264 C 35.987 382.264 29.405 375.682 29.405 367.562 L 29.405 176.429 L 382.263 176.429 L 382.263 367.562 Z " fill="rgb(3,81,73)"/></g></g><g><g><path d=" M 304.451 210.149 C 298.71 204.404 289.399 204.401 283.654 210.141 L 176.429 317.367 L 128.014 268.951 C 122.269 263.211 112.958 263.214 107.217 268.959 C 101.476 274.704 101.48 284.015 107.225 289.756 L 166.035 348.566 C 171.777 354.306 181.083 354.306 186.824 348.566 L 304.444 230.946 C 310.188 225.205 310.192 215.894 304.451 210.149 Z " fill="rgb(3,81,73)"/></g></g></g></g></svg>